<svg xmlns="http://www.w3.org/2000/svg" xmlns:xlink="http://www.w3.org/1999/xlink" width="500" zoomAndPan="magnify" viewBox="0 0 375 374.999991" height="500" preserveAspectRatio="xMidYMid meet" version="1.0"><defs><g/><clipPath id="415f2deab8"><path d="M 251 190 L 269 190 L 269 208 L 251 208 Z M 251 190 " clip-rule="nonzero"/></clipPath><clipPath id="3dcf8edc5f"><path d="M 182.738281 37.5 L 326.335938 237.238281 L 192.367188 333.554688 L 48.765625 133.816406 Z M 182.738281 37.5 " clip-rule="nonzero"/></clipPath><clipPath id="58f76cf2d7"><path d="M 182.738281 37.5 L 326.335938 237.238281 L 192.367188 333.554688 L 48.765625 133.816406 Z M 182.738281 37.5 " clip-rule="nonzero"/></clipPath><clipPath id="1b80fef502"><path d="M 112 78 L 296 78 L 296 273 L 112 273 Z M 112 78 " clip-rule="nonzero"/></clipPath><clipPath id="d538300e7c"><path d="M 182.738281 37.5 L 326.335938 237.238281 L 192.367188 333.554688 L 48.765625 133.816406 Z M 182.738281 37.5 " clip-rule="nonzero"/></clipPath><clipPath id="ed793f44ff"><path d="M 182.738281 37.5 L 326.335938 237.238281 L 192.367188 333.554688 L 48.765625 133.816406 Z M 182.738281 37.5 " clip-rule="nonzero"/></clipPath><clipPath id="5a77e068c9"><path d="M 250.75 188.601562 L 268.75 188.601562 L 268.75 206.601562 L 250.75 206.601562 Z M 250.75 188.601562 " clip-rule="nonzero"/></clipPath></defs><g clip-path="url(#415f2deab8)"><g clip-path="url(#3dcf8edc5f)"><g clip-path="url(#58f76cf2d7)"><path fill="#7ed957" d="M 253.007812 203.707031 C 255.75 207.519531 261.066406 208.394531 264.878906 205.652344 C 268.691406 202.914062 269.554688 197.597656 266.8125 193.78125 C 264.070312 189.964844 258.761719 189.097656 254.949219 191.839844 C 251.136719 194.578125 250.265625 199.890625 253.007812 203.707031 " fill-opacity="1" fill-rule="nonzero"/></g></g></g><g clip-path="url(#1b80fef502)"><g clip-path="url(#d538300e7c)"><g clip-path="url(#ed793f44ff)"><path fill="#7ed957" d="M 278.785156 258.511719 L 267.8125 243.25 C 267.875 243.207031 267.9375 243.164062 268 243.121094 C 268.484375 242.796875 268.964844 242.46875 269.433594 242.132812 C 270.023438 241.707031 270.597656 241.273438 271.167969 240.828125 C 271.1875 240.808594 271.210938 240.792969 271.234375 240.773438 C 271.785156 240.34375 272.320312 239.894531 272.847656 239.441406 C 272.886719 239.410156 272.921875 239.378906 272.957031 239.347656 C 273.476562 238.902344 273.980469 238.441406 274.476562 237.972656 C 274.519531 237.933594 274.5625 237.894531 274.605469 237.851562 C 275.097656 237.386719 275.574219 236.914062 276.042969 236.429688 C 276.089844 236.382812 276.132812 236.335938 276.179688 236.292969 C 276.644531 235.804688 277.097656 235.3125 277.542969 234.808594 C 277.585938 234.761719 277.628906 234.714844 277.671875 234.664062 C 278.113281 234.160156 278.542969 233.648438 278.964844 233.125 C 279.003906 233.074219 279.046875 233.023438 279.089844 232.96875 C 279.507812 232.449219 279.910156 231.921875 280.304688 231.382812 C 280.347656 231.324219 280.390625 231.261719 280.433594 231.203125 C 280.816406 230.671875 281.195312 230.136719 281.558594 229.589844 C 281.585938 229.550781 281.613281 229.511719 281.636719 229.472656 L 282.15625 228.984375 C 288.300781 238.601562 286.941406 251.105469 279.273438 259.1875 Z M 249.925781 250.492188 C 250.355469 250.410156 250.78125 250.3125 251.207031 250.222656 C 251.449219 250.171875 251.691406 250.125 251.933594 250.074219 C 252.371094 249.96875 252.800781 249.855469 253.234375 249.742188 C 253.46875 249.679688 253.710938 249.625 253.945312 249.558594 C 254.433594 249.425781 254.921875 249.273438 255.40625 249.121094 C 255.582031 249.066406 255.761719 249.019531 255.933594 248.960938 C 256.59375 248.75 257.246094 248.523438 257.902344 248.28125 C 258.46875 248.070312 259.035156 247.847656 259.59375 247.617188 L 265.460938 255.777344 C 259.847656 257.449219 253.539062 255.503906 249.925781 250.492188 Z M 227.898438 243.175781 L 209.273438 243.199219 L 130.761719 133.992188 C 122.550781 122.574219 121.152344 107.632812 126.664062 95.019531 L 233.175781 243.171875 Z M 174.109375 243.246094 L 129.589844 181.320312 C 121.40625 169.941406 120.011719 155.050781 125.503906 142.476562 L 197.925781 243.21875 Z M 138.859375 243.289062 L 130.46875 231.613281 C 122.257812 220.195312 120.859375 205.257812 126.367188 192.640625 L 162.761719 243.261719 Z M 211.714844 156.582031 C 232.519531 151.460938 254.539062 158.15625 268.984375 174.175781 L 271.449219 177.148438 C 272 177.8125 272.546875 178.523438 273.082031 179.265625 C 280.136719 189.078125 282.328125 201.386719 279.097656 213.050781 C 278.171875 216.421875 276.792969 219.667969 274.996094 222.703125 C 274.726562 223.15625 274.472656 223.570312 274.199219 223.988281 C 271.519531 228.136719 268.105469 231.71875 264.046875 234.636719 C 263.757812 234.84375 263.46875 235.046875 263.179688 235.246094 C 263.007812 235.363281 262.832031 235.472656 262.65625 235.589844 C 262.539062 235.667969 262.421875 235.75 262.300781 235.824219 C 262.085938 235.960938 261.875 236.09375 261.660156 236.222656 C 261.578125 236.273438 261.496094 236.332031 261.414062 236.378906 C 261.191406 236.511719 260.976562 236.636719 260.757812 236.765625 C 260.675781 236.8125 260.597656 236.859375 260.519531 236.90625 L 259.003906 237.726562 C 258.886719 237.785156 258.769531 237.835938 258.660156 237.894531 L 257.578125 238.421875 C 257.308594 238.546875 257.027344 238.667969 256.75 238.789062 C 256.554688 238.875 256.367188 238.964844 256.167969 239.046875 C 255.703125 239.242188 255.226562 239.425781 254.742188 239.605469 C 254.726562 239.613281 254.710938 239.617188 254.695312 239.625 C 254.207031 239.808594 253.714844 239.976562 253.21875 240.136719 C 253.058594 240.191406 252.898438 240.238281 252.738281 240.289062 C 252.398438 240.394531 252.058594 240.496094 251.71875 240.597656 C 251.53125 240.648438 251.34375 240.699219 251.15625 240.75 C 250.832031 240.832031 250.507812 240.917969 250.179688 240.996094 C 249.992188 241.039062 249.808594 241.085938 249.621094 241.128906 C 249.265625 241.207031 248.910156 241.28125 248.550781 241.351562 C 248.394531 241.382812 248.242188 241.414062 248.085938 241.445312 C 247.578125 241.535156 247.070312 241.621094 246.558594 241.695312 C 246.472656 241.707031 246.378906 241.714844 246.292969 241.726562 C 245.867188 241.789062 245.4375 241.839844 245.007812 241.882812 C 244.828125 241.902344 244.652344 241.914062 244.476562 241.929688 C 244.253906 241.949219 244.03125 241.96875 243.808594 241.984375 L 204.304688 187.03125 C 206.941406 180.726562 211.160156 175.222656 216.605469 171.019531 L 220.136719 168.296875 Z M 281.167969 269.726562 C 296.320312 258.832031 299.777344 237.632812 288.875 222.472656 L 286.714844 219.460938 C 287.195312 218.160156 287.625 216.84375 287.992188 215.511719 C 291.828125 201.671875 289.453125 187.082031 281.496094 175.214844 L 281.640625 175.109375 L 278.636719 171.320312 C 260.550781 148.492188 230.007812 139.804688 202.636719 149.703125 L 196.898438 151.777344 L 207.558594 166.601562 C 203.789062 170.101562 200.621094 174.160156 198.136719 178.636719 L 126 78.296875 L 122.304688 83.824219 C 116.769531 92.117188 113.925781 101.769531 114.105469 111.742188 C 114.238281 119.433594 116.160156 126.875 119.703125 133.59375 C 115.128906 141.324219 112.800781 150.097656 112.957031 159.136719 C 113.109375 168.046875 115.667969 176.609375 120.363281 184.105469 C 115.917969 191.769531 113.652344 200.4375 113.8125 209.367188 C 113.988281 219.34375 117.152344 228.898438 122.976562 237 L 134.140625 252.527344 L 169.390625 252.484375 L 172.523438 252.476562 L 180.738281 252.46875 L 207.066406 252.429688 L 239.804688 252.390625 L 239.933594 252.390625 L 242.429688 255.863281 C 249.03125 265.046875 261.105469 268.011719 271.03125 263.523438 L 277.425781 272.417969 L 281.167969 269.726562 " fill-opacity="1" fill-rule="nonzero"/></g></g></g><g clip-path="url(#5a77e068c9)"><path fill="#000000" d="M 268.75 197.601562 C 268.75 198.191406 268.695312 198.777344 268.578125 199.359375 C 268.464844 199.9375 268.292969 200.5 268.066406 201.046875 C 267.839844 201.59375 267.5625 202.109375 267.234375 202.601562 C 266.90625 203.09375 266.53125 203.546875 266.117188 203.964844 C 265.699219 204.382812 265.242188 204.757812 264.75 205.085938 C 264.261719 205.414062 263.742188 205.691406 263.195312 205.917969 C 262.648438 206.144531 262.085938 206.3125 261.507812 206.429688 C 260.925781 206.542969 260.34375 206.601562 259.75 206.601562 C 259.160156 206.601562 258.574219 206.542969 257.996094 206.429688 C 257.414062 206.3125 256.851562 206.144531 256.308594 205.917969 C 255.761719 205.691406 255.242188 205.414062 254.75 205.085938 C 254.261719 204.757812 253.804688 204.382812 253.386719 203.964844 C 252.96875 203.546875 252.597656 203.09375 252.269531 202.601562 C 251.941406 202.109375 251.664062 201.59375 251.4375 201.046875 C 251.210938 200.5 251.039062 199.9375 250.925781 199.359375 C 250.808594 198.777344 250.75 198.191406 250.75 197.601562 C 250.75 197.011719 250.808594 196.425781 250.925781 195.847656 C 251.039062 195.265625 251.210938 194.703125 251.4375 194.15625 C 251.664062 193.613281 251.941406 193.09375 252.269531 192.601562 C 252.597656 192.109375 252.96875 191.65625 253.386719 191.238281 C 253.804688 190.820312 254.261719 190.445312 254.75 190.117188 C 255.242188 189.789062 255.761719 189.511719 256.308594 189.285156 C 256.851562 189.0625 257.414062 188.890625 257.996094 188.773438 C 258.574219 188.660156 259.160156 188.601562 259.75 188.601562 C 260.34375 188.601562 260.925781 188.660156 261.507812 188.773438 C 262.085938 188.890625 262.648438 189.0625 263.195312 189.285156 C 263.742188 189.511719 264.261719 189.789062 264.75 190.117188 C 265.242188 190.445312 265.699219 190.820312 266.117188 191.238281 C 266.53125 191.65625 266.90625 192.109375 267.234375 192.601562 C 267.5625 193.09375 267.839844 193.613281 268.066406 194.15625 C 268.292969 194.703125 268.464844 195.265625 268.578125 195.847656 C 268.695312 196.425781 268.75 197.011719 268.75 197.601562 Z M 268.75 197.601562 " fill-opacity="1" fill-rule="nonzero"/></g><g fill="#7ed957" fill-opacity="1"><g transform="translate(121.874711, 289.458761)"><g><path d="M 1.757812 -15.773438 L 1.757812 0 L 13.785156 0 L 13.785156 -2.9375 L 5.734375 -2.9375 L 5.734375 -15.773438 Z M 1.757812 -15.773438 "/></g></g></g><g fill="#7ed957" fill-opacity="1"><g transform="translate(136.094234, 289.458761)"><g><path d="M 6.429688 -15.773438 L 0.0703125 0 L 4.234375 0 L 5.414062 -3.121094 L 12.46875 -3.121094 L 13.761719 0 L 17.996094 0 L 10.988281 -15.773438 Z M 8.765625 -11.980469 L 11.3125 -5.875 L 6.453125 -5.875 Z M 8.765625 -11.980469 "/></g></g></g><g fill="#7ed957" fill-opacity="1"><g transform="translate(154.151878, 289.458761)"><g><path d="M 1.757812 -15.773438 L 1.757812 0 L 5.667969 0 L 5.667969 -9.761719 L 14.386719 0 L 17.671875 0 L 17.671875 -15.773438 L 13.785156 -15.773438 L 13.785156 -6.476562 L 5.34375 -15.773438 Z M 1.757812 -15.773438 "/></g></g></g><g fill="#7ed957" fill-opacity="1"><g transform="translate(173.573667, 289.458761)"><g><path d="M 10.339844 -15.984375 C 4.925781 -15.984375 0.808594 -12.90625 0.808594 -7.886719 C 0.808594 -3.03125 4.835938 0.207031 10.175781 0.207031 C 12.722656 0.207031 15.289062 -0.578125 16.929688 -1.917969 L 16.929688 -8.417969 L 10.664062 -8.417969 L 10.664062 -5.480469 L 12.929688 -5.480469 L 12.929688 -3.632812 C 12.027344 -3.285156 11.078125 -3.078125 10.109375 -3.078125 C 7.492188 -3.078125 4.902344 -4.71875 4.902344 -7.75 C 4.902344 -10.710938 7.054688 -12.699219 10.664062 -12.699219 C 12.699219 -12.699219 14.640625 -12.121094 16.539062 -11.265625 L 16.539062 -14.6875 C 14.410156 -15.589844 12.488281 -15.984375 10.339844 -15.984375 Z M 10.339844 -15.984375 "/></g></g></g><g fill="#7ed957" fill-opacity="1"><g transform="translate(192.163094, 289.458761)"><g><path d="M 1.597656 -15.773438 L 1.597656 -6.847656 C 1.597656 -4.949219 1.988281 -3.632812 2.796875 -2.589844 C 4.671875 -0.230469 7.285156 0.207031 9.460938 0.207031 C 13.347656 0.207031 16.027344 -1.363281 16.953125 -3.863281 C 17.253906 -4.671875 17.441406 -5.691406 17.441406 -7.007812 L 17.441406 -15.773438 L 13.460938 -15.773438 L 13.460938 -7.285156 C 13.460938 -5.992188 13.300781 -5.390625 12.953125 -4.8125 C 12.257812 -3.65625 11.011719 -2.960938 9.53125 -2.960938 C 7.910156 -2.960938 6.359375 -3.746094 5.851562 -5.527344 C 5.667969 -6.175781 5.574219 -6.9375 5.574219 -7.839844 L 5.574219 -15.773438 Z M 1.597656 -15.773438 "/></g></g></g><g fill="#7ed957" fill-opacity="1"><g transform="translate(211.261188, 289.458761)"><g><path d="M 6.429688 -15.773438 L 0.0703125 0 L 4.234375 0 L 5.414062 -3.121094 L 12.46875 -3.121094 L 13.761719 0 L 17.996094 0 L 10.988281 -15.773438 Z M 8.765625 -11.980469 L 11.3125 -5.875 L 6.453125 -5.875 Z M 8.765625 -11.980469 "/></g></g></g><g fill="#7ed957" fill-opacity="1"><g transform="translate(229.318831, 289.458761)"><g><path d="M 10.339844 -15.984375 C 4.925781 -15.984375 0.808594 -12.90625 0.808594 -7.886719 C 0.808594 -3.03125 4.835938 0.207031 10.175781 0.207031 C 12.722656 0.207031 15.289062 -0.578125 16.929688 -1.917969 L 16.929688 -8.417969 L 10.664062 -8.417969 L 10.664062 -5.480469 L 12.929688 -5.480469 L 12.929688 -3.632812 C 12.027344 -3.285156 11.078125 -3.078125 10.109375 -3.078125 C 7.492188 -3.078125 4.902344 -4.71875 4.902344 -7.75 C 4.902344 -10.710938 7.054688 -12.699219 10.664062 -12.699219 C 12.699219 -12.699219 14.640625 -12.121094 16.539062 -11.265625 L 16.539062 -14.6875 C 14.410156 -15.589844 12.488281 -15.984375 10.339844 -15.984375 Z M 10.339844 -15.984375 "/></g></g></g><g fill="#7ed957" fill-opacity="1"><g transform="translate(247.908258, 289.458761)"><g><path d="M 1.804688 -15.773438 L 1.804688 0 L 13.4375 0 L 13.4375 -2.890625 L 5.78125 -2.890625 L 5.78125 -6.683594 L 12.929688 -6.683594 L 12.929688 -9.644531 L 5.78125 -9.644531 L 5.78125 -12.835938 L 13.277344 -12.835938 L 13.277344 -15.773438 Z M 1.804688 -15.773438 "/></g></g></g><g fill="#7ed957" fill-opacity="1"><g transform="translate(262.581737, 289.458761)"><g/></g></g><g fill="#000000" fill-opacity="1"><g transform="translate(140.842129, 310.266923)"><g><path d="M 5.40625 0.125 C 4.570312 0.125 3.820312 -0.0195312 3.15625 -0.3125 C 2.5 -0.613281 1.984375 -1.023438 1.609375 -1.546875 C 1.234375 -2.078125 1.039062 -2.6875 1.03125 -3.375 L 2.796875 -3.375 C 2.859375 -2.78125 3.101562 -2.28125 3.53125 -1.875 C 3.957031 -1.46875 4.582031 -1.265625 5.40625 -1.265625 C 6.1875 -1.265625 6.804688 -1.460938 7.265625 -1.859375 C 7.722656 -2.253906 7.953125 -2.757812 7.953125 -3.375 C 7.953125 -3.851562 7.816406 -4.242188 7.546875 -4.546875 C 7.273438 -4.847656 6.941406 -5.078125 6.546875 -5.234375 C 6.148438 -5.398438 5.613281 -5.570312 4.9375 -5.75 C 4.101562 -5.96875 3.429688 -6.1875 2.921875 -6.40625 C 2.421875 -6.625 1.992188 -6.960938 1.640625 -7.421875 C 1.285156 -7.890625 1.109375 -8.519531 1.109375 -9.3125 C 1.109375 -10 1.28125 -10.609375 1.625 -11.140625 C 1.976562 -11.671875 2.472656 -12.082031 3.109375 -12.375 C 3.742188 -12.664062 4.472656 -12.8125 5.296875 -12.8125 C 6.484375 -12.8125 7.453125 -12.515625 8.203125 -11.921875 C 8.960938 -11.328125 9.390625 -10.539062 9.484375 -9.5625 L 7.671875 -9.5625 C 7.609375 -10.039062 7.351562 -10.460938 6.90625 -10.828125 C 6.457031 -11.203125 5.867188 -11.390625 5.140625 -11.390625 C 4.441406 -11.390625 3.875 -11.210938 3.4375 -10.859375 C 3.007812 -10.503906 2.796875 -10.003906 2.796875 -9.359375 C 2.796875 -8.898438 2.925781 -8.523438 3.1875 -8.234375 C 3.445312 -7.941406 3.765625 -7.71875 4.140625 -7.5625 C 4.523438 -7.414062 5.0625 -7.25 5.75 -7.0625 C 6.582031 -6.832031 7.253906 -6.601562 7.765625 -6.375 C 8.273438 -6.15625 8.707031 -5.8125 9.0625 -5.34375 C 9.425781 -4.875 9.609375 -4.242188 9.609375 -3.453125 C 9.609375 -2.828125 9.445312 -2.242188 9.125 -1.703125 C 8.800781 -1.160156 8.316406 -0.71875 7.671875 -0.375 C 7.035156 -0.0390625 6.28125 0.125 5.40625 0.125 Z M 5.40625 0.125 "/></g></g></g><g fill="#000000" fill-opacity="1"><g transform="translate(155.781909, 310.266923)"><g><path d="M 0.78125 -6.328125 C 0.78125 -7.566406 1.054688 -8.675781 1.609375 -9.65625 C 2.171875 -10.644531 2.929688 -11.414062 3.890625 -11.96875 C 4.847656 -12.53125 5.914062 -12.8125 7.09375 -12.8125 C 8.46875 -12.8125 9.671875 -12.476562 10.703125 -11.8125 C 11.734375 -11.144531 12.484375 -10.203125 12.953125 -8.984375 L 10.96875 -8.984375 C 10.625 -9.742188 10.117188 -10.328125 9.453125 -10.734375 C 8.796875 -11.148438 8.007812 -11.359375 7.09375 -11.359375 C 6.207031 -11.359375 5.414062 -11.148438 4.71875 -10.734375 C 4.019531 -10.328125 3.46875 -9.742188 3.0625 -8.984375 C 2.664062 -8.234375 2.46875 -7.347656 2.46875 -6.328125 C 2.46875 -5.328125 2.664062 -4.445312 3.0625 -3.6875 C 3.46875 -2.9375 4.019531 -2.351562 4.71875 -1.9375 C 5.414062 -1.53125 6.207031 -1.328125 7.09375 -1.328125 C 8.007812 -1.328125 8.796875 -1.53125 9.453125 -1.9375 C 10.117188 -2.34375 10.625 -2.925781 10.96875 -3.6875 L 12.953125 -3.6875 C 12.484375 -2.476562 11.734375 -1.539062 10.703125 -0.875 C 9.671875 -0.21875 8.46875 0.109375 7.09375 0.109375 C 5.914062 0.109375 4.847656 -0.164062 3.890625 -0.71875 C 2.929688 -1.269531 2.171875 -2.035156 1.609375 -3.015625 C 1.054688 -3.992188 0.78125 -5.097656 0.78125 -6.328125 Z M 0.78125 -6.328125 "/></g></g></g><g fill="#000000" fill-opacity="1"><g transform="translate(174.075541, 310.266923)"><g><path d="M 11.140625 -12.640625 L 11.140625 0 L 9.484375 0 L 9.484375 -5.734375 L 3.046875 -5.734375 L 3.046875 0 L 1.390625 0 L 1.390625 -12.640625 L 3.046875 -12.640625 L 3.046875 -7.09375 L 9.484375 -7.09375 L 9.484375 -12.640625 Z M 11.140625 -12.640625 "/></g></g></g><g fill="#000000" fill-opacity="1"><g transform="translate(190.918863, 310.266923)"><g><path d="M 7.125 0.125 C 5.957031 0.125 4.890625 -0.148438 3.921875 -0.703125 C 2.953125 -1.253906 2.1875 -2.019531 1.625 -3 C 1.0625 -3.988281 0.78125 -5.097656 0.78125 -6.328125 C 0.78125 -7.566406 1.0625 -8.675781 1.625 -9.65625 C 2.1875 -10.644531 2.953125 -11.414062 3.921875 -11.96875 C 4.890625 -12.519531 5.957031 -12.796875 7.125 -12.796875 C 8.3125 -12.796875 9.390625 -12.519531 10.359375 -11.96875 C 11.328125 -11.414062 12.085938 -10.648438 12.640625 -9.671875 C 13.203125 -8.691406 13.484375 -7.578125 13.484375 -6.328125 C 13.484375 -5.085938 13.203125 -3.976562 12.640625 -3 C 12.085938 -2.019531 11.328125 -1.253906 10.359375 -0.703125 C 9.390625 -0.148438 8.3125 0.125 7.125 0.125 Z M 7.125 -1.3125 C 8.007812 -1.3125 8.804688 -1.515625 9.515625 -1.921875 C 10.222656 -2.335938 10.78125 -2.925781 11.1875 -3.6875 C 11.59375 -4.445312 11.796875 -5.328125 11.796875 -6.328125 C 11.796875 -7.347656 11.59375 -8.234375 11.1875 -8.984375 C 10.78125 -9.742188 10.222656 -10.328125 9.515625 -10.734375 C 8.816406 -11.148438 8.019531 -11.359375 7.125 -11.359375 C 6.226562 -11.359375 5.429688 -11.148438 4.734375 -10.734375 C 4.035156 -10.328125 3.484375 -9.742188 3.078125 -8.984375 C 2.671875 -8.234375 2.46875 -7.347656 2.46875 -6.328125 C 2.46875 -5.328125 2.671875 -4.445312 3.078125 -3.6875 C 3.484375 -2.925781 4.039062 -2.335938 4.75 -1.921875 C 5.457031 -1.515625 6.25 -1.3125 7.125 -1.3125 Z M 7.125 -1.3125 "/></g></g></g><g fill="#000000" fill-opacity="1"><g transform="translate(209.466289, 310.266923)"><g><path d="M 7.125 0.125 C 5.957031 0.125 4.890625 -0.148438 3.921875 -0.703125 C 2.953125 -1.253906 2.1875 -2.019531 1.625 -3 C 1.0625 -3.988281 0.78125 -5.097656 0.78125 -6.328125 C 0.78125 -7.566406 1.0625 -8.675781 1.625 -9.65625 C 2.1875 -10.644531 2.953125 -11.414062 3.921875 -11.96875 C 4.890625 -12.519531 5.957031 -12.796875 7.125 -12.796875 C 8.3125 -12.796875 9.390625 -12.519531 10.359375 -11.96875 C 11.328125 -11.414062 12.085938 -10.648438 12.640625 -9.671875 C 13.203125 -8.691406 13.484375 -7.578125 13.484375 -6.328125 C 13.484375 -5.085938 13.203125 -3.976562 12.640625 -3 C 12.085938 -2.019531 11.328125 -1.253906 10.359375 -0.703125 C 9.390625 -0.148438 8.3125 0.125 7.125 0.125 Z M 7.125 -1.3125 C 8.007812 -1.3125 8.804688 -1.515625 9.515625 -1.921875 C 10.222656 -2.335938 10.78125 -2.925781 11.1875 -3.6875 C 11.59375 -4.445312 11.796875 -5.328125 11.796875 -6.328125 C 11.796875 -7.347656 11.59375 -8.234375 11.1875 -8.984375 C 10.78125 -9.742188 10.222656 -10.328125 9.515625 -10.734375 C 8.816406 -11.148438 8.019531 -11.359375 7.125 -11.359375 C 6.226562 -11.359375 5.429688 -11.148438 4.734375 -10.734375 C 4.035156 -10.328125 3.484375 -9.742188 3.078125 -8.984375 C 2.671875 -8.234375 2.46875 -7.347656 2.46875 -6.328125 C 2.46875 -5.328125 2.671875 -4.445312 3.078125 -3.6875 C 3.484375 -2.925781 4.039062 -2.335938 4.75 -1.921875 C 5.457031 -1.515625 6.25 -1.3125 7.125 -1.3125 Z M 7.125 -1.3125 "/></g></g></g><g fill="#000000" fill-opacity="1"><g transform="translate(228.013716, 310.266923)"><g><path d="M 3.046875 -1.34375 L 7.46875 -1.34375 L 7.46875 0 L 1.390625 0 L 1.390625 -12.640625 L 3.046875 -12.640625 Z M 3.046875 -1.34375 "/></g></g></g></svg>